<svg id="图层_1" data-name="图层 1" xmlns="http://www.w3.org/2000/svg" viewBox="0 0 453.47 566"><defs><style>.cls-1{fill:#fff;}.cls-17,.cls-18,.cls-19,.cls-2,.cls-20,.cls-21,.cls-26,.cls-3,.cls-4,.cls-5,.cls-6,.cls-7,.cls-8{fill:none;}.cls-17,.cls-2{stroke:red;}.cls-17,.cls-18,.cls-19,.cls-2,.cls-20,.cls-3,.cls-4,.cls-5{stroke-width:2px;}.cls-18,.cls-3{stroke:#90f;}.cls-3{stroke-dasharray:4 4;}.cls-19,.cls-4{stroke:#f0f;}.cls-4{stroke-dasharray:20 4;}.cls-20,.cls-5{stroke:blue;}.cls-5{stroke-dasharray:20 4 4 4;}.cls-6,.cls-7{stroke:#000;}.cls-7{stroke-dasharray:8 4;}.cls-8{stroke:#090;}.cls-10,.cls-11,.cls-12,.cls-13,.cls-14,.cls-15,.cls-16,.cls-22,.cls-23,.cls-24,.cls-25,.cls-9{isolation:isolate;}.cls-10,.cls-11,.cls-12,.cls-22,.cls-23,.cls-24,.cls-25{font-size:28.94px;}.cls-10{fill:#090;}.cls-10,.cls-11,.cls-13,.cls-15,.cls-22,.cls-24{font-family:TimesNewRomanPSMT, Times New Roman;}.cls-12,.cls-14,.cls-16,.cls-23,.cls-25{font-family:TimesNewRomanPS-ItalicMT, Times New Roman;font-style:italic;}.cls-13,.cls-14,.cls-15,.cls-16{font-size:43.4px;}.cls-13,.cls-14,.cls-22,.cls-23{fill:blue;}.cls-15,.cls-16,.cls-24,.cls-25{fill:red;}.cls-17,.cls-18,.cls-19,.cls-20{stroke-dasharray:1 0;}.cls-21{stroke:#666;}.cls-26{stroke:#999;}</style></defs><title>画板 1</title><circle class="cls-1" cx="63.47" cy="-139" r="149998.5"/><path id="curve" class="cls-2" d="M214.4,135.95q57.87-57.87,66-109.41"/><path id="curve-2" data-name="curve" class="cls-3" d="M214.4,135.95q-57.87,57.87-66,109.41"/><path id="curve-3" data-name="curve" class="cls-4" d="M413.33,135.95q-57.87,57.87-66,109.41"/><path id="curve-4" data-name="curve" class="cls-5" d="M15.46,135.95q57.87-57.87,66-109.41"/><path id="arrowhead" class="cls-6" d="M211.68,35.58l2.71-9,2.71,9"/><path id="arrowhead-2" data-name="arrowhead" class="cls-6" d="M431.41,133.23l9,2.71-9,2.71"/><path class="cls-6" d="M214.4,26.53V316.79M6.42,135.95h434"/><path class="cls-7" d="M114.93,26.53V140.47M313.86,26.53V140.47M114.93,316.79V190.2M313.86,316.79V190.2"/><path class="cls-8" d="M65.2,135.95V72.65H264.13v63.3"/><path id="arrowhead-3" data-name="arrowhead" class="cls-8" d="M67.91,126.9l-2.71,9-2.71-9"/><path id="arrowhead-4" data-name="arrowhead" class="cls-8" d="M266.84,126.9l-2.71,9-2.71-9"/><g class="cls-9"><text class="cls-10" transform="translate(42.5 158.19)">−3π</text><text class="cls-10" transform="translate(43.5 158.19)">___</text><text class="cls-10" transform="translate(57.96 187.13)">4</text></g><g class="cls-9"><text class="cls-10" transform="translate(256.82 158.19)">π</text><text class="cls-10" transform="translate(256.89 158.19)">_</text><text class="cls-10" transform="translate(256.89 187.13)">4</text></g><g class="cls-9"><text class="cls-10" transform="translate(198.12 94.89)">1</text></g><g class="cls-9"><text class="cls-11" transform="translate(0 158.19)">−π</text></g><g class="cls-9"><text class="cls-11" transform="translate(99.47 158.19)">−π</text><text class="cls-11" transform="translate(100.46 158.19)">__</text><text class="cls-11" transform="translate(107.7 187.13)">2</text></g><g class="cls-9"><text class="cls-11" transform="translate(306.56 158.19)">π</text><text class="cls-11" transform="translate(306.63 158.19)">_</text><text class="cls-11" transform="translate(306.63 187.13)">2</text></g><g class="cls-9"><text class="cls-11" transform="translate(406.02 158.19)">π</text></g><g class="cls-9"><text class="cls-11" transform="translate(220.72 162.71)">0</text></g><g class="cls-9"><text class="cls-12" transform="translate(428.83 162.71)">θ</text></g><g class="cls-9"><text class="cls-11" transform="translate(140.79 45.16)">tan</text><text class="cls-12" transform="translate(176.13 45.16)"> θ</text></g><g class="cls-9"><text class="cls-13" transform="translate(43.33 275.56)">−</text><text class="cls-14" transform="translate(67.8 275.56)">y</text></g><g class="cls-9"><text class="cls-13" transform="translate(142.79 275.56)">−</text><text class="cls-14" transform="translate(167.27 275.56)">y</text></g><g class="cls-9"><text class="cls-15" transform="translate(242.26 275.56)">+</text><text class="cls-16" transform="translate(266.73 275.56)">y</text></g><g class="cls-9"><text class="cls-15" transform="translate(341.72 275.56)">+</text><text class="cls-16" transform="translate(366.2 275.56)">y</text></g><g class="cls-9"><text class="cls-13" transform="translate(43.33 316.25)">−</text><text class="cls-14" transform="translate(67.8 316.25)">x</text></g><g class="cls-9"><text class="cls-15" transform="translate(142.79 316.25)">+</text><text class="cls-16" transform="translate(167.27 316.25)">x</text></g><g class="cls-9"><text class="cls-15" transform="translate(242.26 316.25)">+</text><text class="cls-16" transform="translate(266.73 316.25)">x</text></g><g class="cls-9"><text class="cls-13" transform="translate(341.72 316.25)">−</text><text class="cls-14" transform="translate(366.2 316.25)">x</text></g><g id="point"><circle class="cls-17" cx="359.07" cy="334.88" r="1.36"/><path class="cls-2" d="M359.07,334.88,214.4,443.39"/></g><g id="point-2" data-name="point"><circle class="cls-18" cx="359.07" cy="551.89" r="1.36"/><path class="cls-3" d="M359.07,551.89,214.4,443.39"/></g><g id="point-3" data-name="point"><circle class="cls-19" cx="69.72" cy="334.88" r="1.36"/><path class="cls-4" d="M69.72,334.88,214.4,443.39"/></g><g id="point-4" data-name="point"><circle class="cls-20" cx="69.72" cy="551.89" r="1.36"/><path class="cls-5" d="M69.72,551.89,214.4,443.39"/></g><g id="arrow"><path class="cls-21" d="M359.07,334.88V442.3"/><path id="arrowhead-5" data-name="arrowhead" class="cls-21" d="M357.45,341.39l1.63-5.43,1.63,5.43"/></g><g id="arrow-2" data-name="arrow"><path class="cls-21" d="M359.07,551.89V444.47"/><path id="arrowhead-6" data-name="arrowhead" class="cls-21" d="M360.7,545.38l-1.63,5.43-1.63-5.43"/></g><g id="arrow-3" data-name="arrow"><path class="cls-21" d="M69.72,334.88V442.3"/><path id="arrowhead-7" data-name="arrowhead" class="cls-21" d="M68.09,341.39,69.72,336l1.63,5.43"/></g><g id="arrow-4" data-name="arrow"><path class="cls-21" d="M69.72,551.89V444.47"/><path id="arrowhead-8" data-name="arrowhead" class="cls-21" d="M71.35,545.38l-1.63,5.43-1.63-5.43"/></g><g id="arrow-5" data-name="arrow"><path class="cls-21" d="M69.72,443.39H212.95"/><path id="arrowhead-9" data-name="arrowhead" class="cls-21" d="M78.4,445.56l-7.23-2.17,7.23-2.17"/></g><g id="arrow-6" data-name="arrow"><path class="cls-21" d="M359.07,443.39H215.84"/><path id="arrowhead-10" data-name="arrowhead" class="cls-21" d="M350.39,441.22l7.23,2.17-7.23,2.17"/></g><g class="cls-9"><text class="cls-22" transform="translate(109.39 465.63)">−</text><text class="cls-23" transform="translate(125.71 465.63)">x</text></g><g class="cls-9"><text class="cls-24" transform="translate(290.24 465.63)">+</text><text class="cls-25" transform="translate(306.56 465.63)">x</text></g><g class="cls-9"><text class="cls-24" transform="translate(28.01 397.81)">+</text><text class="cls-25" transform="translate(44.33 397.81)">y</text></g><g class="cls-9"><text class="cls-22" transform="translate(28.01 506.32)">−</text><text class="cls-23" transform="translate(44.33 506.32)">y</text></g><g class="cls-9"><text class="cls-24" transform="translate(371.62 397.81)">+</text><text class="cls-25" transform="translate(387.94 397.81)">y</text></g><g class="cls-9"><text class="cls-22" transform="translate(371.62 506.32)">−</text><text class="cls-23" transform="translate(387.94 506.32)">y</text></g><g class="cls-9"><text class="cls-12" transform="translate(261.54 433.98)">θ</text></g><path class="cls-26" d="M259.61,443.39a45.21,45.21,0,0,0-9-27.13"/></svg>